<?xml version="1.0" encoding="utf-8"?>
<svg viewBox="0 0 1024 1024" xmlns="http://www.w3.org/2000/svg" xmlns:xlink="http://www.w3.org/1999/xlink">
	<path d="M510.271 52.713c-253.205 0-458.457 205.285-458.457 458.492s205.25 458.457 458.457 458.457c253.206 0 458.492-205.25 458.492-458.457s-205.284-458.492-458.492-458.492zM732.366 668.42c11.634 11.634 10.176 31.948-3.245 45.403l-16.228 16.194c-13.42 13.419-33.734 14.878-45.367 3.245l-157.254-157.217-157.218 157.217c-11.634 11.634-31.949 10.175-45.404-3.245l-16.192-16.194c-13.419-13.458-14.878-33.771-3.245-45.403l157.217-157.218-157.218-157.218c-11.634-11.67-10.175-31.984 3.245-45.404l16.192-16.192c13.458-13.458 33.772-14.879 45.404-3.246l157.218 157.219 157.254-157.219c11.634-11.634 31.949-10.211 45.367 3.246l16.228 16.192c13.42 13.42 14.878 33.734 3.245 45.404l-157.252 157.218 157.253 157.218z">
	</path>
</svg>
