<?xml version="1.0" encoding="utf-8"?><svg  viewBox="0 0 1024 1024" xmlns="http://www.w3.org/2000/svg" xmlns:xlink="http://www.w3.org/1999/xlink"><path d="M512 62.615c-248.203 0-449.385 201.182-449.385 449.385s201.182 449.385 449.385 449.385c248.203 0 449.385-201.182 449.385-449.385s-201.182-449.385-449.385-449.385zM495.916 254.744c26.807 0 48.691 21.797 48.691 48.692s-21.797 48.604-48.692 48.604-48.692-21.797-48.692-48.692c0.088-26.807 21.885-48.604 48.692-48.604zM576.161 769.256h-128.32c-18.018 0-32.607-14.59-32.607-32.607s14.59-32.607 32.607-32.607h31.553v-222.627h-31.641c-17.93 0-32.607-14.59-32.607-32.607s14.589-32.607 32.607-32.607h64.688c17.754 0 32.080 14.414 32.080 32.080v255.762h31.641c18.018 0 32.607 14.59 32.607 32.607s-14.59 32.607-32.607 32.607v0z"></path></svg>