<?xml version="1.0" encoding="utf-8"?><svg  viewBox="0 0 1024 1024" xmlns="http://www.w3.org/2000/svg" xmlns:xlink="http://www.w3.org/1999/xlink"><path d="M512 64C264.64 64 64 264.576 64 512c0 247.36 200.64 448 448 448 247.424 0 448-200.64 448-448C960 264.576 759.424 64 512 64zM511.936 896c-212.032 0-384-171.904-384-384 0-212.096 171.968-384 384-384s384 171.968 384 384C895.936 724.096 723.968 896 511.936 896zM774.208 514.432c0.064 22.656-19.072 41.088-42.56 41.088L287.04 555.52c-23.68 0-42.688-18.432-42.688-41.152C244.224 491.712 263.488 473.28 286.976 473.28l444.544 0C755.136 473.28 774.272 491.712 774.208 514.432z"></path></svg>