<?xml version="1.0" standalone="no"?>
<!DOCTYPE svg PUBLIC "-//W3C//DTD SVG 1.1//EN" "http://www.w3.org/Graphics/SVG/1.1/DTD/svg11.dtd" >
<svg xmlns="http://www.w3.org/2000/svg">
<metadata>
Created by FontForge 20120731 at Sat Jan  7 16:58:00 2017
 By admin
</metadata>
<defs>
<font id="ifont" horiz-adv-x="1024" >
  <font-face 
    font-family="ifont"
    font-weight="500"
    font-stretch="normal"
    units-per-em="1024"
    panose-1="2 0 6 3 0 0 0 0 0 0"
    ascent="896"
    descent="-128"
    x-height="792"
    bbox="-1 -168.247 1151 902"
    underline-thickness="50"
    underline-position="-100"
    unicode-range="U+0078-E633"
  />
<missing-glyph horiz-adv-x="374" 
d="M34 0v682h272v-682h-272zM68 34h204v614h-204v-614z" />
    <glyph glyph-name=".notdef" horiz-adv-x="374" 
d="M34 0v682h272v-682h-272zM68 34h204v614h-204v-614z" />
    <glyph glyph-name=".null" horiz-adv-x="0" 
 />
    <glyph glyph-name="nonmarkingreturn" horiz-adv-x="341" 
 />
    <glyph glyph-name="x" unicode="x" horiz-adv-x="1001" 
d="M281 543q-27 -1 -53 -1h-83q-18 0 -36.5 -6t-32.5 -18.5t-23 -32t-9 -45.5v-76h912v41q0 16 -0.5 30t-0.5 18q0 13 -5 29t-17 29.5t-31.5 22.5t-49.5 9h-133v-97h-438v97zM955 310v-52q0 -23 0.5 -52t0.5 -58t-10.5 -47.5t-26 -30t-33 -16t-31.5 -4.5q-14 -1 -29.5 -0.5
t-29.5 0.5h-32l-45 128h-439l-44 -128h-29h-34q-20 0 -45 1q-25 0 -41 9.5t-25.5 23t-13.5 29.5t-4 30v167h911zM163 247q-12 0 -21 -8.5t-9 -21.5t9 -21.5t21 -8.5q13 0 22 8.5t9 21.5t-9 21.5t-22 8.5zM316 123q-8 -26 -14 -48q-5 -19 -10.5 -37t-7.5 -25t-3 -15t1 -14.5
t9.5 -10.5t21.5 -4h37h67h81h80h64h36q23 0 34 12t2 38q-5 13 -9.5 30.5t-9.5 34.5q-5 19 -11 39h-368zM336 498v228q0 11 2.5 23t10 21.5t20.5 15.5t34 6h188q31 0 51.5 -14.5t20.5 -52.5v-227h-327z" />
    <glyph glyph-name="uniE600" unicode="&#xe600;" 
d="M512 551q69 0 118 -49t49 -118t-49 -118t-118 -49t-118 49t-49 118t49 118t118 49zM930 551h-310q42 -27 66.5 -71t24.5 -96q0 -51 -24 -95l-205 -354q16 -1 30 -1q92 0 175 35.5t143.5 96t96 143.5t35.5 175q0 87 -32 167zM512 185q-64 0 -115 36.5t-73 94.5l-186 319
q-76 -114 -76 -251q0 -111 50.5 -208t138.5 -159.5t196 -77.5l155 267q-42 -21 -90 -21zM511 583h404q-56 114 -164 182.5t-239 68.5q-106 0 -198 -45.5t-155 -125.5l154 -264q6 77 63 130.5t135 53.5z" />
    <glyph glyph-name="uniE601" unicode="&#xe601;" 
d="M512 834q-187 0 -318.5 -131.5t-131.5 -318.5t131.5 -318.5t318.5 -131.5t318.5 131.5t131.5 318.5t-131.5 318.5t-318.5 131.5zM562 134h-100v100h100v-100zM562 334h-100v300h100v-300z" />
    <glyph glyph-name="uniE602" unicode="&#xe602;" 
d="M512 833q-91 0 -174.5 -35.5t-143.5 -95.5t-95.5 -143.5t-35.5 -174.5t35.5 -174.5t95.5 -143.5t143.5 -95.5t174.5 -35.5t174.5 35.5t143.5 95.5t95.5 143.5t35.5 174.5t-35.5 174.5t-95.5 143.5t-143.5 95.5t-174.5 35.5zM496 641q20 0 34.5 -14t14.5 -34.5
t-14.5 -34.5t-34.5 -14t-34.5 14t-14.5 34.5t14.5 34.5t34.5 14zM576 127h-128q-14 0 -23.5 9.5t-9.5 23t9.5 23t23.5 9.5h31v223h-31q-14 0 -23.5 9.5t-9.5 23t9.5 23t23.5 9.5h64q14 0 23.5 -9.5t9.5 -22.5v-256h31q14 0 23.5 -9.5t9.5 -23t-9.5 -23t-23.5 -9.5z" />
    <glyph glyph-name="uniE603" unicode="&#xe603;" 
d="M512 834q-186 0 -318 -132t-132 -318t132 -318t318 -132t318 132t132 318t-132 318t-318 132zM477 203l-63 -64l-191 191l63 63l128 -127l318 318l64 -63z" />
    <glyph glyph-name="uniE604" unicode="&#xe604;" 
d="M510.5 843q-93.5 0 -178.5 -36t-146.5 -97.5t-97.5 -146.5t-36 -178t36 -178t97.5 -146.5t146.5 -98t178.5 -36.5t178 36.5t146 98t98 146.5t36.5 178t-36.5 178t-98 146.5t-146 97.5t-178 36zM732 228q9 -9 8 -22.5t-11 -23.5l-16 -16q-10 -10 -23.5 -11t-21.5 8
l-158 157l-157 -157q-9 -9 -22 -8t-23 11l-17 16q-10 10 -11 23.5t8 22.5l157 157l-157 157q-9 9 -8 22t11 23l17 17q10 10 23 11t22 -8l157 -157l158 157q8 9 21.5 8t23.5 -11l16 -17q10 -10 11 -23t-8 -22l-157 -157z" />
    <glyph glyph-name="uniE605" unicode="&#xe605;" 
d="M959 479q-6 18 -20 29.5t-33 14.5l-239 36l-105 219q-8 17 -24 27t-35.5 10t-36 -10t-24.5 -27l-104 -219l-240 -36q-18 -3 -32.5 -14.5t-20.5 -29.5q-13 -38 15 -66l176 -178l-41 -245q-6 -41 28 -65q17 -11 38 -11q17 0 32 8l209 113l209 -113q15 -8 32 -8q21 0 39 11
q34 24 27 65l-41 245l176 178q28 28 16 66h-1zM721 281q-24 -23 -18 -56l40 -246l-209 114q-15 8 -32 8t-32 -8l-209 -114l41 246q5 32 -18 56l-176 177l240 36q35 6 50 37l104 219l104 -219q16 -31 51 -37l239 -36z" />
    <glyph glyph-name="uniE606" unicode="&#xe606;" 
d="M64 773h911v-73h-911v73zM64 420h911v-72h-911v72zM64 65h911v-73h-911v73z" />
    <glyph glyph-name="uniE607" unicode="&#xe607;" 
d="M904 300h-56v-113l-112 113h-336q-23 0 -39.5 16.5t-16.5 40.5v396q0 23 16.5 39.5t39.5 16.5h504q23 0 39.5 -16.5t16.5 -39.5v-396q0 -24 -16.5 -40.5t-39.5 -16.5zM484 583q-11 0 -19.5 -8t-8.5 -20t8.5 -20t20 -8t19.5 8t8 20t-8 20t-20 8zM652 583q-11 0 -19.5 -8
t-8.5 -20t8.5 -20t20 -8t19.5 8t8 20t-8 20t-20 8zM820 583q-11 0 -19.5 -8t-8.5 -20t8.5 -20t20 -8t19.5 8t8 20t-8 20t-20 8zM680 244v-114q0 -23 -16.5 -39.5t-39.5 -16.5h-336l-112 -113v113h-56q-23 0 -39.5 16.5t-16.5 39.5v397q0 23 16.5 39.5t39.5 16.5h168v-283
q0 -23 16.5 -39.5t39.5 -16.5h336zM680 244z" />
    <glyph glyph-name="uniE608" unicode="&#xe608;" horiz-adv-x="1214" 
d="M1151 457v-2v-4v0q0 -21 -14.5 -35.5t-35.5 -14.5h-44l-107 -429q-4 -17 -17.5 -27.5t-31.5 -10.5v0h-566v0q-18 0 -31 10.5t-18 27.5l-107 429h-44q-21 0 -35.5 14.5t-14.5 35t14.5 35.5t35.5 15h971q17 -2 29.5 -13.5t15.5 -28.5v-1v-1zM468 351q0 20 -14.5 35
t-35.5 15t-35.5 -15t-14.5 -35v-267q0 -21 14.5 -35.5t35.5 -14.5t35.5 14.5t14.5 35.5v267zM668 351q0 20 -14.5 35t-35.5 15t-35.5 -15t-14.5 -35v-267q0 -21 14.5 -35.5t35.5 -14.5t35.5 14.5t14.5 35.5v267zM868 351q0 20 -14.5 35t-35.5 15t-35.5 -15t-14.5 -35v-267
q0 -21 14.5 -35.5t35.5 -14.5t35.5 14.5t14.5 35.5v267zM674 760h1q-7 11 -7 24q0 21 14.5 35.5t35.5 14.5q31 0 45 -28l135 -255h-113zM562 760l-111 -209h-113l136 255q13 28 44 28q21 0 35.5 -14.5t14.5 -35.5q0 -13 -6 -24z" />
    <glyph glyph-name="uniE609" unicode="&#xe609;" 
d="M354 60q-10 -2 -32.5 -7.5t-39.5 -8.5t-32 -1q-23 2 -47 13.5t-37 27.5q-25 32 -22 68.5t35 64.5q57 51 115 75q184 76 416 -13q-188 -66 -358 -220zM799 626q144 -28 159 -138q12 -99 -63 -134q-10 73 -55.5 103t-100.5 8q-7 8 -22.5 27.5t-27.5 33.5t-24 27
q-32 32 -58 37q-42 7 -64 27.5t-29 63.5q-7 41 10 66t53 14q18 -5 40 -10t36.5 -7.5t40.5 -6.5t38 -6q35 -6 52 -35t15 -70zM475 585q98 18 178 -52q-27 -2 -51.5 -13.5t-38.5 -23t-37 -33.5t-33 -31q-2 -1 -8 -6.5t-8.5 -7t-8.5 -6t-9 -5t-8.5 -2.5t-9 -0.5t-9 4t-10 8
t-9.5 13.5q-4 6 -27 3q-34 -4 -54 13.5t-19 51.5q0 25 -15 41q-55 61 -16 128q20 36 57 52.5t78 7.5q36 -8 62.5 -36t25.5 -60q0 -7 -5 -14.5t-13.5 -17.5t-11.5 -14zM565 198q93 38 186 75q2 5 4 11q-17 7 -142 53q109 84 119 93q16 12 28 18t29 8t32 -9q60 -32 53 -85
q-3 -30 5 -54.5t27 -58.5q24 -43 20 -87q-3 -32 -22 -39t-47 9q-18 10 -45 12q-18 2 -44 9t-44 12t-45 6t-47 -8q-8 -3 -18.5 0t-25.5 10t-22 10q-1 7 -1 15zM576 487q-16 -103 -105 -129q-19 -6 -70 -18t-78 -22q-77 -28 -128 -64q-13 -10 -25 -23.5t-27.5 -35t-24.5 -32.5
q-41 -1 -50.5 24t11.5 63q5 9 12.5 17.5t13.5 15t18 15.5t17.5 12.5t19.5 13t18 12.5q20 14 43.5 27.5t57 32t50.5 28.5q6 -1 27 -10t40 -15t37 -8q23 -4 66 27q12 9 24.5 20t28.5 26.5t24 22.5zM592 88q-19 -19 -41 -19t-38.5 10.5t-39 17t-40.5 0.5q-1 1 -2.5 5t-2.5 5
q85 56 100 65q6 2 9.5 1t11.5 -4t11 -4q9 -2 27.5 -9.5t32 -10.5t23.5 0q21 8 47 6t44.5 -7.5t44 -11.5t44.5 -6q25 -1 30.5 -16.5t-13.5 -33.5q-30 -28 -60 -29q-63 -3 -159 7q-4 0 -8.5 5t-10.5 14.5t-10 14.5zM523 349q8 12 26 43.5t32 52.5t28 40q8 10 29.5 14t34.5 -2
q22 -10 25.5 -32t-11.5 -43q-51 -77 -164 -73zM352 59q77 31 80 32q-40 -45 -98 -68.5t-107 -17.5t-63 42q38 -12 66.5 -16t62 2.5t61.5 26.5zM79 153q76 -32 62 -112q-61 109 -62 112z" />
    <glyph glyph-name="uniE60A" unicode="&#xe60a;" 
d="M924 735l-67 67l-345 -345l-345 345l-67 -67l412 -412zM512 78l-345 346l-67 -67l412 -413l412 413l-67 67z" />
    <glyph glyph-name="uniE60B" unicode="&#xe60b;" 
d="M685 399q71 72 71 173q0 100 -71 171t-171 72h-1h-1v0q-101 0 -172.5 -71.5t-71.5 -171.5q0 -101 71 -173q-99 -36 -160 -107.5t-61 -158.5q0 -30 32 -62t84.5 -58t126.5 -43t151 -17q79 0 153 16.5t126 42.5t83.5 58.5t31.5 62.5q0 87 -61 158.5t-160 107.5z" />
    <glyph glyph-name="uniE60C" unicode="&#xe60c;" 
d="M782 -49h-545q-39 0 -82.5 40t-43.5 86v515q0 43 36 84.5t79 41.5h69v-122h429v122h60q47 0 86 -37t39 -90v-518q0 -53 -39.5 -87.5t-87.5 -34.5v0zM755 457q0 7 -4.5 11.5t-10.5 4.5h-461q-6 0 -10.5 -4.5t-4.5 -11.5v-30q0 -7 4.5 -11.5t10.5 -4.5h461q6 0 10.5 4.5
t4.5 11.5v30zM755 304q0 6 -4.5 10.5t-10.5 4.5h-461q-6 0 -10.5 -4.5t-4.5 -10.5v-31q0 -6 4.5 -10.5t10.5 -4.5h461q6 0 10.5 4.5t4.5 10.5v31zM755 150q0 6 -4.5 10.5t-10.5 4.5h-461q-6 0 -10.5 -4.5t-4.5 -10.5v-31q0 -6 4.5 -10.5t10.5 -4.5h461q6 0 10.5 4.5
t4.5 10.5v31zM479 657h-123v123h61q0 25 18 43t44 18h61q25 0 43 -18t18 -43h62v-123h-184zM509 789q-16 0 -27 -11t-11 -27t11 -27t27 -11t27.5 11t11.5 27t-11.5 27t-27.5 11v0z" />
    <glyph glyph-name="uniE60D" unicode="&#xe60d;" 
d="M939 638l-113 171h-642l-112 -171v-89v0q0 -32 25.5 -54.5t61.5 -22.5t61 22.5t25 54.5q0 -32 25.5 -54.5t61.5 -22.5t61.5 22.5t25.5 54.5q0 -32 25 -54.5t61 -22.5t61.5 22.5t25.5 54.5q0 -32 25.5 -54.5t61.5 -22.5t61 22.5t25 54.5q0 -32 25.5 -54.5t61.5 -22.5
t61.5 22.5t25.5 54.5v0v89zM765 461q-37 -31 -86.5 -31t-86.5 31q-37 -31 -86.5 -31t-86.5 31q-37 -31 -87 -31t-87 31q-37 -31 -86 -31q-27 0 -51 9v-407h515v280h190v-280h90v407q-25 -9 -51 -9q-50 0 -87 31zM472 127h-274v185h274v-185zM652 32l-28 -56v-25h190v25
l-28 56h-134z" />
    <glyph glyph-name="uniE60E" unicode="&#xe60e;" 
d="M80 14l71 -67l361 347l361 -347l71 67l-432 415zM512 675l361 -347l71 67l-432 415l-432 -415l71 -67zM512 675z" />
    <glyph glyph-name="uniE60F" unicode="&#xe60f;" 
d="M959.5 492q-6.5 19 -25.5 22l-271 41l-121 260q-9 18 -29 18q-21 0 -29 -18l-122 -259l-272 -41q-19 -3 -25.5 -21.5t7.5 -32.5l197 -202l-47 -286q-3 -20 13 -31.5t34 -1.5l242 133l242 -134q8 -4 16 -4h1q13 0 22.5 9.5t9.5 22.5q0 6 -2 11l-45 280l197 201
q14 14 7.5 33z" />
    <glyph glyph-name="uniE610" unicode="&#xe610;" 
d="M512 844q-96 0 -184 -37.5t-151 -101t-100.5 -151t-37.5 -184t37.5 -184t100.5 -151t151 -101t184 -37.5t184 37.5t151 101t100.5 151t37.5 184t-37.5 184t-100.5 151t-151 101t-184 37.5zM512 -64q-88 0 -168.5 34.5t-138.5 92.5t-92.5 138.5t-34.5 168.5t34.5 168.5
t92.5 138.5t138.5 92.5t168.5 34.5t168.5 -34.5t138.5 -92.5t92.5 -138t34.5 -168.5t-34.5 -168.5t-92.5 -138.5t-138.5 -93t-168.5 -34.5z" />
    <glyph glyph-name="uniE611" unicode="&#xe611;" 
d="M685 620v148q-4 22 -21.5 29.5t-35.5 -1t-24 -28.5v-148h-29v180q-15 33 -41 32.5t-40 -32.5v-180h-29v150q-14 28 -40 30t-41 -30v-150h-29v116q-12 28 -38.5 30.5t-42.5 -30.5v-116h-140v-421h144q3 -107 76.5 -183t175.5 -76t175.5 76t76.5 183h130v421h-227zM885 222
h-106v195q-7 36 -22.5 53.5t-32.5 4.5t-26 -58v-195h-541v374h728v-374zM455 502l36 -70h1v-1h-45v-16h45v-24h-45v-17h45v-94h-34v-16h131v16h-33v94h44v17h-44v24h44v16h-44v4h-1l39 67v1h29v16h-80v-16h21l-39 -68h-6l-35 68h19v16h-79v-16h31v-1z" />
    <glyph glyph-name="uniE612" unicode="&#xe612;" 
d="M785 377l-96 99v-1l-351 359l-99 -102l350 -358l-333 -342l96 -98l334 341l99 101v1z" />
    <glyph glyph-name="uniE613" unicode="&#xe613;" 
d="M956 341l-429 428q-6 7 -15 7t-15 -7l-429 -428q-6 -6 -6 -15t6.5 -15t15 -6t15.5 6l70 70v-355q0 -35 25 -60t61 -25h150q9 0 15 6t6 15v193h193q9 0 15.5 6t6.5 15t-6.5 15.5t-15.5 6.5h-214q-9 0 -15.5 -6.5t-6.5 -15.5v-192h-128q-18 0 -30.5 12.5t-12.5 29.5v398
l300 300l413 -413q7 -6 15.5 -6t15 6t6.5 15t-6 15zM833.5 283q-8.5 0 -15 -6t-6.5 -15v-236q0 -17 -12.5 -29.5t-30.5 -12.5h-150q-9 0 -15 -6.5t-6 -15.5t6 -15t15 -6h150q36 0 61 25t25 60v236q0 9 -6.5 15t-15 6z" />
    <glyph glyph-name="uniE614" unicode="&#xe614;" 
d="M812 534q0 124 -88 212t-212 88t-212 -88t-88 -212q0 -99 61 -180h-1l240 -420l240 420h-1q61 81 61 180zM512 414q-50 0 -85 35t-35 85t35 85t85 35t85 -35t35 -85t-35 -85t-85 -35z" />
    <glyph glyph-name="uniE615" unicode="&#xe615;" 
d="M980 587h-717l-58 239h-161v-34h134l166 -686q-26 -8 -43.5 -30.5t-17.5 -51.5q0 -35 25 -60t60.5 -25t60.5 25t25 60q0 28 -18 52h240q-18 -24 -18 -52q0 -35 25 -60t60.5 -25t60.5 25t25 60.5t-25 60.5t-60 25h-365l-17 68h479zM419 24q0 -21 -15 -36t-36 -15t-36 15
t-15 36t15 36t36 15t36 -15t15 -36zM795 24q0 -21 -15 -36t-36.5 -15t-36.5 15t-15 36t15 36t36.5 15t36.5 -15t15 -36zM354 212l-83 341h661l-115 -341h-463z" />
    <glyph glyph-name="uniE616" unicode="&#xe616;" 
d="M666 366q62 37 98.5 99.5t36.5 135.5q0 113 -79 192t-192 79t-192 -79t-79 -192q0 -73 36.5 -135.5t99.5 -99.5q-126 -43 -205 -152t-79 -245q0 -14 8.5 -22t22.5 -8h783q13 0 21.5 8t8.5 22q-3 136 -83.5 246t-205.5 151zM319 601q0 88 61.5 149.5t149.5 61.5
t149.5 -61.5t61.5 -149.5t-61.5 -149.5t-149.5 -61.5t-149.5 61.5t-61.5 149.5zM169 -1q11 140 115 235.5t246 95.5t245 -95t116 -236h-722z" />
    <glyph glyph-name="uniE617" unicode="&#xe617;" 
d="M277 553h470q9 0 15 6.5t6 15t-6 15t-15 6.5h-470q-9 0 -15 -6.5t-6 -15t6 -15t15 -6.5zM277 425h470q9 0 15 6.5t6 15t-6 15t-15 6.5h-470q-9 0 -15 -6.5t-6 -15t6 -15t15 -6.5zM277 297h470q9 0 15 6.5t6 15t-6 15t-15 6.5h-470q-9 0 -15 -6.5t-6 -15t6 -15t15 -6.5z
M277 169h470q9 0 15 6.5t6 15t-6 15t-15 6.5h-470q-9 0 -15 -6.5t-6 -15t6 -15t15 -6.5zM347 816zM729 816zM832 852h-640q-26 0 -45 -19t-19 -45v-784q0 -27 19 -46t45 -19h393q60 -1 86 -22q5 -4 11 -4q8 0 14 7q4 5 3.5 12.5t-6.5 12.5q-36 29 -108 30h-393
q-12 0 -20.5 8.5t-8.5 19.5v785q0 12 8.5 20.5t20.5 8.5h155v-1q33 -3 46 -32q2 -9 6 -18t18 -21.5t34 -16.5h1h172h2q19 4 33 16.5t18.5 21.5t6.5 18q12 28 45 32v1h103q12 0 20.5 -8.5t8.5 -20.5v-784q0 -12 -8.5 -20.5t-20.5 -8.5h-86q-7 0 -12 -5.5t-5 -12.5t5 -12.5
t12 -5.5h86q26 0 45 19t19 46v784q0 26 -19 45t-45 19zM651 796l-1 -1v-2l-2 -7q-2 -5 -9.5 -12.5t-17.5 -10.5h-166q-23 5 -28 30l-1 1v2q-5 12 -12 21h248q-7 -10 -11 -21z" />
    <glyph glyph-name="uniE618" unicode="&#xe618;" horiz-adv-x="1000" 
d="M690 845h-393q-41 0 -69.5 -29t-28.5 -69v-688q0 -41 28.5 -69.5t69.5 -28.5h393q40 0 69 28.5t29 69.5v688q0 40 -29 69t-69 29zM420 796h147q10 0 17 -7.5t7 -17.5t-7 -17t-17 -7h-147q-11 0 -18 7t-7 17t7 17.5t18 7.5zM493 10q-20 0 -34.5 14.5t-14.5 35t14.5 34.5
t34.5 14t34.5 -14t14.5 -34.5t-14.5 -35t-34.5 -14.5zM739 157h-491v540h491v-540z" />
    <glyph glyph-name="uniE619" unicode="&#xe619;" 
d="M299 -109q-12 5 -13 5q-37 10 -60.5 39.5t-23.5 67.5q-1 51 0 261q0 16 7 25t19.5 8.5t20 -9.5t7.5 -24v-123v-122q0 -39 16.5 -55.5t55.5 -16.5h369q36 0 52.5 16.5t16.5 53.5v120v120q0 20 4 24q16 15 29 15q10 -1 16 -8.5t6 -19.5v-177q0 -74 -1 -82q0 -44 -23 -73
t-65 -41l-9 -4h-424zM505 664q-13 -20 -14 -21q-117 -117 -374 -372q-13 -13 -20.5 -13.5t-18.5 10.5t-11 18.5t11 19.5l4 4q341 338 401 398q15 15 28 15t29 -15q243 -243 401 -400q14 -13 14.5 -20.5t-11.5 -19.5q-18 -19 -37 0q-3 4 -34 35q-261 259 -344 342
q-1 1 -12 19h-12z" />
    <glyph glyph-name="uniE61A" unicode="&#xe61a;" 
d="M640 145q0 -7 -3.5 -12.5t-7.5 -5.5h-234q-4 0 -7.5 5.5t-3.5 12.5v669q0 8 3.5 13t7.5 5h234q4 0 7.5 -5t3.5 -13v-669zM814 322q8 0 9.5 -4t-2.5 -10l-298 -357q-5 -6 -11.5 -6t-10.5 6l-298 357q-5 6 -3 10t9 4h605z" />
    <glyph glyph-name="uniE61B" unicode="&#xe61b;" 
d="M835 660l-60 63l-263 -275l-263 275l-60 -63l262 -276l-262 -276l60 -63l263 275l263 -275l60 63l-262 276z" />
    <glyph glyph-name="uniE61C" unicode="&#xe61c;" 
d="M1027 416h-480v480h-68v-480h-480v-68h480v-480h68v480h480v68z" />
    <glyph glyph-name="uniE61D" unicode="&#xe61d;" 
d="M96 352q-13 0 -22.5 9.5t-9.5 22.5t9.5 22.5t22.5 9.5h832q13 0 22.5 -9.5t9.5 -22.5t-9.5 -22.5t-22.5 -9.5h-832z" />
    <glyph glyph-name="uniE61E" unicode="&#xe61e;" 
d="M516 831h-4q-92 0 -169.5 -44.5t-123.5 -122t-47 -168.5q0 -50 45.5 -146.5t103.5 -186.5t114 -158t77 -68v0q20 0 76.5 68t114.5 158.5t103.5 187t45.5 145.5q-1 91 -46 167.5t-122 121.5t-168 46zM764 381q-35 -76 -93 -169q-54 -87 -106 -154q-31 -40 -53 -60
q-22 20 -53 60q-53 66 -107 153q-57 93 -92 169q-36 80 -36 115q1 58 24 111q22 51 62 90.5t91 60.5q53 22 111 22h4q117 -1 199.5 -84t84.5 -200q0 -35 -36 -114zM507.5 642q-60.5 0 -103.5 -43t-43 -104t43 -103.5t103.5 -42.5t103.5 42.5t43 103.5t-43 104t-103.5 43z
M507 401q-39 0 -66.5 27.5t-27.5 66.5t27.5 67t66.5 28t67 -28t28 -67t-28 -66.5t-67 -27.5z" />
    <glyph glyph-name="uniE61F" unicode="&#xe61f;" 
d="M512 839q-92 0 -176.5 -36t-145 -96.5t-96.5 -144.5t-36 -176.5t36 -176.5t96.5 -145t145 -97t176.5 -36t176.5 36t145 97t96.5 145t36 176.5t-36 176.5t-96.5 144.5t-145 96.5t-176.5 36zM771 353h-227v-227h-64v227h-227v65h227v227h64v-227h227v-65z" />
    <glyph glyph-name="uniE620" unicode="&#xe620;" horiz-adv-x="1000" 
d="M686 836q36 4 51 0q24 -5 35 -27q8 -13 11 -43q0 -5 1 -93h-19h-23v33v33q0 34 -5 48q-3 10 -16 10q-18 0 -57 -9q-255 -70 -407 -112q-22 -6 -27 -8q-36 -16 -43 -20q-30 -14 -47 -35q30 20 68 19h614q35 0 65.5 -18.5t47.5 -49.5q15 -24 15 -56v-428q0 -32 -5 -48
q-13 -50 -59 -73q-25 -14 -64 -13h-617q-39 -1 -65 14q-24 12 -40 34.5t-21 49.5q-2 17 -1 30v172v171q0 116 2 144q4 35 13 54q19 43 73 69q15 9 58 26q123 34 344 95q117 30 118 31zM190 589q-25 -4 -44 -23.5t-25 -45.5q-1 -9 -1 -25.5t-1 -22.5v-202v-200q0 -19 4 -30
q5 -17 18 -30t30 -18q13 -4 38 -4h311h310q30 0 51 17q28 23 27 61v220v220q1 27 -17 49.5t-44 30.5q-10 4 -39 4h-300h-301q-10 0 -17 -1zM780 339q18 5 36 -3.5t25 -25.5q7 -13 4.5 -29t-12.5 -27t-24.5 -15t-28.5 0q-16 5 -27 19t-11 31t11 31.5t27 18.5z" />
    <glyph glyph-name="uniE621" unicode="&#xe621;" 
d="M760 -4h-638v694h390l56 54l-1 1h-445q-23 0 -39 -16t-16 -39v-694q0 -23 16 -39t39 -16h638q23 0 39.5 16t16.5 39v407l-56 -53v-354zM956 706q-1 46 -44 87q-38 36 -82 36q-50 0 -89 -39q-6 -5 -101 -100l-188 -188l-92 -92q-4 -4 -6 -10q-13 -49 -60 -202
q-5 -14 6 -24q6 -7 16 -7q4 0 7 2q114 38 198 63q6 2 10 6q378 374 383 378q42 44 42 90zM874 655q-23 -24 -359 -355l-17 -17q-31 -10 -133 -43q31 103 40 137q359 358 375 374q23 23 50 23q22 0 43 -21q27 -25 27 -48t-26 -50z" />
    <glyph glyph-name="uniE622" unicode="&#xe622;" 
d="M798 459v111q0 5 -0.5 14.5t-5.5 36t-14 51t-28 54.5t-45.5 51t-69 36t-95.5 15q-174 0 -235 -150q-22 -57 -22 -108v-111h-111v-515h737v515h-111zM577 175v-121h-73v121q-37 21 -37 63q0 31 21.5 52.5t52 21.5t52 -21.5t21.5 -52.5q0 -42 -37 -63zM725 459h-369v110
q0 15 2.5 32t13.5 46t29 51t54.5 39t85 17t85 -17t54.5 -38.5t29 -51t13 -46.5t3 -31v-111z" />
    <glyph glyph-name="uniE623" unicode="&#xe623;" 
d="M712 800q-93 0 -159.5 -66t-66.5 -160q0 -64 35 -120l-365 -365q-22 -22 -22 -52.5t21.5 -51.5t52 -21t51.5 21l54 54q5 -8 7 -10l41 -42q15 -14 35 -14t34 14l111 111q15 14 15 34.5t-15 34.5l-41 42q-2 1 -10 6l142 142q0 1 1.5 3t1.5 3q40 -15 77 -15q93 0 159.5 66.5
t66.5 160t-66.5 159.5t-159.5 66zM712 495q-33 0 -56 23t-23 56t23 56t56 23t56 -23t23 -56t-23 -56t-56 -23z" />
    <glyph glyph-name="uniE624" unicode="&#xe624;" 
d="M879 90q-21 24 -52.5 57t-43.5 43q-49 41 -108 0q-8 -9 -16 -15.5t-16.5 -9.5t-14.5 -5t-14.5 -1.5t-11.5 0.5t-11 2l-8 2q-17 3 -28.5 9t-47 40.5t-88.5 99.5q-28 33 -44.5 61.5t-31 65t-18.5 46.5q-7 13 0 28t21 29l26 28q14 14 21.5 30.5t1.5 33.5l-93 173
q-23 25 -39 23q-33 -1 -57.5 -18t-37 -39.5t-20 -45t-9.5 -37.5l-1 -16q-1 -4 -2.5 -13.5t0 -40t7.5 -63.5t23.5 -83.5t45 -102t76.5 -117t113 -129.5q32 -33 115 -90.5t113 -69.5q14 -5 37.5 -11.5t39.5 -9.5l17 -4q3 0 8 -0.5t20.5 0t29.5 3.5t32 10.5t32.5 19t26.5 32
t17 46.5v1v-1v18q-2 12 -10 21z" />
    <glyph glyph-name="uniE625" unicode="&#xe625;" 
d="M633 381l-3 2l-2 3l-2 2l-2 2l-3 2l-2 2l-2 2l-3 2l-2 2l-2 2l-3 1l-2 2l-3 1l-3 2l-2 2l-2 1l-3 1l-3 2l-2 1l-3 1l-3 2l-2 1l-12 4l-2 1l-3 1h-3l-3 1l-3 1l-5 1l-4 1h-2l-3 1h-3l-6 1h-3h-3l-3 1h-3h-3h-9h-2h-4l-2 -1h-3h-3h-3l-3 -1h-3l-3 -1h-3l-3 -1h-3l-8 -2
l-3 -1l-3 -1h-3l-3 -1l-2 -1l-3 -1l-9 -3l-2 -1l-3 -2l-3 -1l-2 -1l-3 -1l-2 -2l-3 -1l-2 -1l-3 -2l-3 -1l-2 -2l-3 -1l-2 -2l-2 -2l-3 -1l-2 -2l-5 -4l-2 -1l-2 -2l-2 -2l-3 -2l-2 -2l-6 -6l-2 -2l-2 -2l-1 -2l-3 -3l-1 -2l-2 -2l-2 -3l-2 -2l-1 -2l-2 -3l-1 -2l-3 -5
l-2 -3l-1 -2l-1 -3l-2 -3l-1 -2l-1 -3l-1 -3l-1 -2l-1 -3l-1 -3l-1 -3l-1 -3l-1 -3l-1 -3v-3l-1 -3v-3l-1 -3l-3 -40l2 -8l2 -7l2 -7l2 -7l2 -7l2 -6l1 -3l2 -4l1 -3l1 -3l1 -3l1 -3l1 -3l1 -3l2 -2l1 -3l1 -3l1 -3l1 -2l1 -3l2 -2l1 -3l1 -2l1 -3l2 -2l1 -3l1 -2l2 -2l1 -3
l1 -2l1 -2l2 -2l1 -2l2 -2l2 -4l2 -2l1 -2l2 -2l1 -2l2 -1l1 -2l2 -2l1 -2l2 -1l1 -2l2 -1l1 -2l2 -1l2 -2l1 -1l2 -1l2 -2l2 -1l1 -1l2 -2l2 -1l2 -1l2 -1l1 -1l2 -1l2 -1l2 -1l2 -1l2 -1l2 -1l2 -1l2 -1h2l2 -2h2l2 -1l3 -1h2l2 -1h2l2 -1h3l2 -1l5 -1h2l2 -1h3l5 -1h2h3
l2 -1h3h3h2h3h26h3h3h6l7 1h6l7 1l7 1l7 1h7l7 1l8 1l34 21l3 1l2 2l2 1l2 2l2 2l2 1l2 2l2 1l2 2l2 2l1 2l3 2l1 2l2 2l1 1l2 2l2 2l1 2l2 2l1 2l2 2l1 2l2 2l1 2l1 3l2 2l1 2l1 2l2 2l1 2l1 2l1 3l1 2l1 2l1 2l1 3l1 2l1 2l1 3v2l1 2l1 3l1 2l1 2v3l1 2v3l1 2v2l1 3v2l1 3
v2l1 2v3v2v3l1 2v3v2l1 3v19l-1 3v2v3l-1 2v3v2v2l-1 3v2l-1 3v2v3l-1 2v3l-1 2l-1 2v2l-1 3l-1 2l-1 2v3l-1 2l-1 2l-1 3l-1 2v2l-1 2l-1 3l-2 2l-1 2l-1 2l-1 2l-1 2l-1 2l-1 3l-1 1l-2 2l-1 2l-1 3l-1 1l-2 2l-1 2l-2 2l-1 2l-1 2l-2 2l-2 2l-1 1l-2 2l-1 2l-2 2l-2 1
l-3 4l-2 1l-2 2l-2 1l-1 2zM431 574v-43h178v41h75v28v-88v-2v-1l1 -1v-2v-1l1 -1l1 -1v-2l1 -1v-1l1 -2v-1l1 -1l1 -1v-1l1 -1l1 -2l1 -1l1 -1l1 -1l1 -1l1 -1l1 -1l1 -1l1 -1l1 -1l1 -1l1 -1l2 -2l2 -2l3 -2l2 -2l3 -1l2 -2l3 -2l2 -2l3 -1l2 -2l10 -6l4 -3l2 -1l2 -2
l7 -4l5 -4l6 -4l2 -2l2 -1l3 -2l2 -2l2 -1l2 -2l2 -2l2 -1l2 -2l2 -2l2 -2l2 -1l2 -3l2 -1l2 -2l4 -5l1 -2l3 -2l4 -5l2 -3l2 -3l2 -3l3 -3l2 -4l8 -11l3 -5l4 -5l1 -2l3 -4l1 -3l1 -2l2 -2l1 -2l1 -2l1 -2l1 -2l1 -3l2 -5l1 -2l1 -3l1 -3l1 -3l1 -3l2 -3l1 -3l1 -4l1 -4
l1 -4l1 -4v-276h-705v258l1 3v3v4l1 3v4l1 3v4l1 3v4l1 3l1 3l1 3l1 3l1 4l1 3v3l2 3l1 3l1 3l1 3l1 3l2 3l1 3l1 3l2 3l1 3l2 3l1 3l2 2l2 3l5 9l2 3l1 3l2 2l2 3l2 3l2 2l2 3l2 3l2 2l2 3l2 3l2 2l2 2l2 3l3 3l2 2l2 3l2 2l3 2l2 3l3 2l2 2l3 3l2 2l3 2l3 3l2 2l3 2l3 2
l3 3l1 1l2 1l1 1l1 1l3 1l3 3l5 3l3 1l3 2l3 2l3 1l17 10l3 1l4 2l2 2l10 5l3 2l6 4l3 2l1 1l2 1l1 2l2 1l1 1l2 1l1 2l2 1l1 1l2 2l1 1l2 1l2 15v44h77zM508 332h2h8h1h2l2 -1h2h2l2 -1l1 -1h2l2 -1h2l1 -1l4 -1l2 -1l1 -1l2 -1l1 -1l2 -1l1 -1l2 -1l1 -1l2 -1l1 -1l2 -2
l2 -2l2 -1l1 -2l1 -1l2 -2l1 -1l1 -1l1 -2l1 -1l1 -1l1 -2l1 -2l1 -1l1 -1l1 -2l1 -2l1 -1l1 -2l1 -1v-2l1 -2l1 -1v-2l1 -1v-2l1 -2v-1l1 -2l1 -1v-2v-1v-2l1 -1v-2v-2v-2v-1l1 -2v-7l-1 -2v-2v-2v-1v-2l-1 -2v-2v-2l-1 -1l-1 -2v-2l-1 -2v-1l-1 -2l-1 -2v-2l-1 -1l-1 -2
l-1 -2v-1l-2 -2v-1l-1 -2l-1 -2l-1 -1l-1 -2l-1 -1l-2 -2l-1 -1l-1 -2l-1 -1l-1 -1l-2 -1l-2 -3l-2 -1l-1 -1l-1 -1l-2 -1l-2 -1l-1 -1l-2 -2l-1 -1h-2l-1 -1l-2 -1l-2 -1h-1l-2 -1h-2l-3 -1l-2 -1h-2h-2l-2 -1h-2h-2h-2h-6l-2 -1h-2l-1 1h-6h-2h-2h-2l-1 1l-4 1h-3l-2 1h-1
l-2 1h-2l-1 1l-2 1h-1l-2 1h-1l-2 1l-1 1l-1 1l-2 1l-1 1l-2 1l-1 1h-1l-1 1l-2 2l-1 1l-1 1l-1 1l-3 2l-1 2l-1 1l-2 3l-1 1l-1 1l-1 2l-1 2l-1 1l-1 1l-1 2v2l-1 1l-1 2l-2 5l-1 2l-1 2v2l-4 18v2v2v4v2v2l1 3v2v2v1l1 3v2l1 1v2l1 2v2l1 2l1 2l1 2l1 2v1l1 2l1 2l3 4l1 1
l1 2l1 2l1 1l1 2l1 1l2 2l1 1l1 2l2 1l1 1l1 2l2 1l1 1l2 1l1 2l2 1l2 1l1 1l2 1l1 1l2 1l2 1h2l1 1l2 1h2l2 1h1l2 1l2 1h2h2h1l2 1h2h2h2h2zM932 420l-198 123l25 75h-490l24 -97l-184 -76l-3 4l-2 4l-2 4l-2 3l-3 4l-2 3l-2 4l-2 3l-2 3l-2 3l-1 3l-2 3l-2 3l-1 4l-6 11
l-1 2l-1 3l-1 3v3l-1 3l-1 2l-1 3v2l-1 3l-1 2v3v3l-1 2v3v10v3v3l1 2v3v3l1 2l1 3v3l1 3l1 3l1 3l1 3v3l1 3l2 3l1 3l1 3l1 4l2 3l1 3l2 4l2 3l1 4l2 4l1 3l3 4l1 4l2 4l52 40l1 2l2 1l2 1l2 1l2 2l2 1l2 1l2 1h2l2 1l2 1l8 3l74 26l81 19l80 5l79 4l81 -6l79 -7l79 -15
l75 -20l9 -4l8 -3l8 -3l7 -3l3 -1l6 -3l3 -2l3 -1l3 -2l3 -1l2 -2l3 -1l3 -2l2 -1l6 -4l3 -2l3 -1l2 -2l3 -3l3 -2l3 -2l4 -3l3 -2l7 -6l3 -3l4 -4l2 -3l6 -7l2 -3l3 -4l2 -3l2 -3l2 -3l4 -6l1 -2l2 -3l1 -3l2 -3l1 -3l1 -3l1 -2l2 -3l1 -3l1 -3l1 -4l1 -3l1 -3l1 -4v-3
l1 -4l1 -4l1 -4l1 -4l2 -9v-10v-5v-9l-1 -3v-5v-3v-4l-1 -3v-4l-1 -3l-1 -3v-4l-1 -2v-4l-1 -3l-1 -3l-1 -3l-1 -3l-1 -3l-1 -3l-1 -3l-1 -3l-2 -4l-1 -3l-1 -3l-2 -4l-3 -8z" />
    <glyph glyph-name="uniE626" unicode="&#xe626;" 
d="M545 -65h-18q-14 1 -23.5 12t-9 25t11.5 24t25 9q37 -2 61.5 6t44.5 30q36 39 87 173q72 192 157 456l-446 89l-157 -431q-5 -14 -18.5 -20t-27 -1t-19.5 18t-1 27l168 459q4 12 15 18.5t24 3.5l514 -102q15 -3 23 -16.5t4 -28.5q-85 -269 -171 -497q-55 -146 -101 -196
q-54 -58 -143 -58zM549 -66q-19 -1 -42 4t-37 10.5t-14 6.5l-290 131q-1 1 -4 2t-12 5.5t-17.5 10.5t-19.5 16t-19.5 22t-16 29t-11.5 36.5t-3 45.5t7 55l397 -161q-1 -3 -1 -8.5t0.5 -21.5t3.5 -30.5t10.5 -31.5t19 -28.5t31 -17.5t44.5 -2q18 -17 10 -42t-36 -31zM732 498
q-4 0 -9 1l-152 42q-14 3 -21 15.5t-3 26.5t16.5 21.5t25.5 3.5l153 -42q13 -4 20.5 -16.5t3.5 -26.5q-3 -11 -12.5 -18t-21.5 -7zM671 347q-6 0 -11 1l-152 50q-13 5 -19.5 17.5t-2 26.5t17 20.5t26.5 1.5l152 -49q13 -5 19.5 -18t2.5 -26q-8 -24 -33 -24zM614 206
q-6 0 -11 2l-152 50q-13 4 -19.5 17t-2 26.5t17 20t26.5 2.5l152 -50q13 -4 19.5 -17t2.5 -27q-8 -24 -33 -24zM478 571q-4 0 -7 1h-2q-2 0 -4 1q-14 3 -21.5 15t-4.5 26t15 22t26 5q1 0 3 -1h2q14 -3 22 -15t5 -27q-3 -12 -12.5 -19.5t-21.5 -7.5zM424 427h-8l-1 1
q-3 0 -4 1q-14 3 -22 15t-5 26t15.5 22t26.5 5q1 -1 3 -1h2q14 -3 22 -15.5t5 -26.5q-3 -12 -12.5 -19.5t-21.5 -7.5zM368 293q-3 0 -7 1h-2q-2 1 -3 1q-15 3 -22.5 15t-4.5 26t15 22t26 5q1 0 3 -1h2q15 -3 22.5 -15t4.5 -26q-2 -13 -12 -20.5t-22 -7.5z" />
    <glyph glyph-name="uniE627" unicode="&#xe627;" 
d="M221 457h145v-510h292v510h145l-291 364z" />
    <glyph glyph-name="uniE628" unicode="&#xe628;" 
d="M515 696l-449 -619l891 2z" />
    <glyph glyph-name="uniE629" unicode="&#xe629;" 
d="M562 130q-17 -18 -43 -17.5t-43 17.5q-59 62 -125 132.5t-146 156.5t-125 132q-15 16 -17 36t8.5 35.5t25.5 25.5t34 7.5t34 -18.5q55 -58 173 -183.5t180 -191.5q35 38 155.5 169.5t185.5 203.5q25 27 57.5 16t41 -41t-12.5 -61q-76 -82 -221 -241t-162 -178z" />
    <glyph glyph-name="uniE62A" unicode="&#xe62a;" 
d="M764 737l-352 -353l352 -353q9 -8 9 -20t-9 -21l-45 -45q-9 -8 -20.5 -8t-20.5 8l-418 418q-9 9 -9 21t9 21l418 418q9 8 20.5 8t20.5 -8l45 -45q9 -9 9 -21t-9 -20z" />
    <glyph glyph-name="uniE62B" unicode="&#xe62b;" horiz-adv-x="1026" 
d="M62 660l451 -563l450 563h-901z" />
    <glyph glyph-name="uniE62C" unicode="&#xe62c;" horiz-adv-x="1000" 
d="M698 463h-163v-39h163v39zM495 533h-163v-39h163v39zM698 533h-163v-39h163v39zM986 552q-12 40 -42.5 68t-70.5 36q7 40 -8 78.5t-48 64.5q-36 28 -81 31.5t-83 -17.5q-18 40 -55 64.5t-83 24.5q-42 0 -77.5 -21.5t-55.5 -56.5q-35 17 -77 14t-76.5 -27.5t-50.5 -62.5
t-11 -78q-40 -7 -71.5 -33.5t-45.5 -66.5q-13 -41 -4 -80t37 -69q-28 -29 -38 -68.5t2 -80.5q13 -40 44 -67t71 -35q-6 -40 9.5 -78t49.5 -63t75.5 -29t77.5 13q19 -36 54 -58t77.5 -23t78 19.5t56.5 55.5q35 -18 77 -15.5t76.5 26.5t51.5 61.5t13 77.5q40 6 72.5 32
t46.5 65q14 41 5.5 80.5t-35.5 69.5q29 29 39.5 68t-0.5 80zM332 391v-13h-40v188h203v39h-248v37h248v48h40v-48h249v-37h-249v-39h203v-175h-203v-45q72 0 141 2q-7 5 -21 18l30 23q60 -49 105 -92l-34 -27q-21 22 -44 44q-148 -3 -462 -11l-3 41q126 0 248 1v46h-163z
M569 238l-34 -28q-29 36 -64 73l31 23q42 -38 67 -68zM274 153l-38 22q32 47 54 108l40 -16q-27 -66 -56 -114zM658 194q-11 -50 -77 -50h-138q-72 0 -72 71v67h43v-63q0 -35 40 -35h119q40 0 45 26q5 22 8 55q6 -3 42 -17q-4 -31 -10 -54zM760 161q-27 39 -72 92l32 23
q31 -33 76 -88zM495 463h-163v-39h163v39z" />
    <glyph glyph-name="uniE62D" unicode="&#xe62d;" 
d="M950 72h12v-65h-12v65zM950 181h12v-66h-12v66zM950 290h12v-66h-12v66zM950 399h12v-66h-12v66zM950 508h12v-66h-12v66zM950 616h12v-65h-12v65zM950 725h12v-66h-12v66zM950 834h12v-66h-12v66zM860 834h66v-11h-66v11zM751 834h66v-11h-66v11zM642 834h66v-11h-66v11
zM533 834h66v-11h-66v11zM425 834h66v-11h-66v11zM316 834h66v-11h-66v11zM207 834h66v-11h-66v11zM98 834h66v-11h-66v11zM62 -36v-30h30v12h-18v18h-12zM62 72h12v-65h-12v65zM62 181h12v-66h-12v66zM62 290h12v-66h-12v66zM62 399h12v-66h-12v66zM62 508h12v-66h-12v66z
M62 616h12v-65h-12v65zM62 725h12v-66h-12v66zM62 834h12v-66h-12v66zM135 -54h65v-12h-65v12zM243 -54h66v-12h-66v12zM681 399h-154v154h-30v-154h-154v-30h154v-154h30v154h154v30zM352 -54h66v-12h-66v12zM461 -54h66v-12h-66v12zM570 -54h66v-12h-66v12zM679 -54h65
v-12h-65v12zM787 -54h66v-12h-66v12zM950 -36v-18h-54v-12h66v30h-12z" />
    <glyph glyph-name="uniE62E" unicode="&#xe62e;" 
d="M738 510q-56 -29 -69 -68q30 -8 67 5l27 9l-6 -27q-6 -28 1 -56q27 9 49 35l20 25l8 -31q7 -32 32 -57q31 36 21 91q-4 25 -14 43q-9 18 -22 29l-9 7l4 10q9 30 15 62q4 21 5 38l-28 2q3 -14 3 -30q2 -31 -2 -60l-2 -17l-17 4q-18 4 -39 1q-21 -4 -44 -15zM505 606
q58 -38 87 -98q-14 -22 -20 -46q-17 -7 -49 -19t-39 -15q-130 -50 -227 -128q-37 -30 -64 -63q-43 32 -67 79t-24 99q0 72 43 130.5t114 85.5q13 -14 28 -24l1 -1q-13 -16 -27 -36l-22 -32l38 -8q37 -7 74 1q13 3 25 12q21 -23 67 -52l33 -21l6 38q6 36 -4 74l-2 6
q14 8 29 18zM438 599q11 4 28.5 14t29.5 18l12 8q-27 16 -60 20q-17 2 -39 -11q0 22 14 46l-31 19q-20 -34 -20 -64q-16 24 -33 27q-16 2 -34 1.5t-32 -2.5l-15 -2q16 -26 44 -45q13 -9 38 -9q-3 -1 -5 -3q-10 -7 -23 -22.5t-21 -26.5l-9 -12q31 -6 63 1q19 4 40 31
q1 -16 8 -25q8 -9 24 -21.5t28 -20.5l12 -8q5 31 -4 63q-3 12 -15 24zM178 301q3 136 39 200l-39 24q-34 -32 -33.5 -85.5t33.5 -138.5zM299 248q59 47 112 74.5t124.5 54t105.5 42.5l-6 4v10q0 2 1 6.5t5.5 17.5t13 25t26.5 28t43 28q27 14 53 18q17 3 33 2q2 18 1 37
q-2 29 -7 45l-7 22l23 -1l65 -5l15 -1v-15q0 -24 -7 -59q-5 -29 -13 -56q13 -13 22 -31q12 -23 18 -52q5 -26 1.5 -47.5t-10 -37t-15 -26t-13.5 -15.5t-6 -5l-10 -7l-9 7q-2 1 -3 2q-42 -138 -155 -250.5t-257 -158.5q-74 -26 -124 -11t-92 78q-17 27 -25 56t-5.5 65
t28.5 76.5t74 79.5zM288 -32q-20 46 -3 96l-46 23q-8 -60 49 -119zM315 120q27 38 73.5 80t100 85t78.5 67q-1 -1 -32.5 -16t-41 -20t-40 -21t-45.5 -25.5t-41.5 -26.5t-42 -30.5t-33 -31.5t-28.5 -35z" />
    <glyph glyph-name="uniE62F" unicode="&#xe62f;" 
d="M994 46l-4 6l-11 12q-12 14 -43 40q-44 37 -81 61l-50 32l-22 11q-17 8 -37 1q-16 -5 -24 -19l-18 -25q-3 -7 -7 -14q-4 -6 -13 -24.5t-15 -29.5q-8 -14 -22 -24.5t-32.5 -14t-38.5 7.5q-105 60 -177 128q-103 98 -139 178q-8 13 -1.5 38t27.5 35q14 7 36 15.5t32 14.5
q7 5 15 9.5t19 11.5q1 0 4.5 3.5t4.5 3.5q1 2 3 3q19 19 9 44l-3 8q-14 34 -37 72q-18 30 -43 63q-16 22 -33 38t-26 21l-10 5q-9 5 -13 7q-24 10 -51 -2q-17 -6 -32.5 -15.5t-22.5 -15t-27 -21.5q-46 -38 -72 -85t-20 -90q10 -74 91 -204.5t188.5 -233t245 -179
t215.5 -85.5q82 -11 175 75q40 37 57 75q7 14 8.5 30.5t-5.5 32.5z" />
    <glyph glyph-name="uniE630" unicode="&#xe630;" 
d="M661 896h-288q-21 0 -36 -9.5t-15 -29.5v-395q0 -23 -7 -31.5t-26 -8.5h-170q-19 0 -28 -16.5t-5 -39t18 -39.5l377 -440q13 -15 32 -15t33 15l377 440q14 17 15.5 39.5t-9 39t-30.5 16.5l-155 -6q-21 0 -34.5 12t-13.5 34v395q-1 21 -9 30t-26 9z" />
    <glyph glyph-name="uniE631" unicode="&#xe631;" 
d="M367 -115h280q21 0 35 9.5t14 29.5v384q0 22 7.5 30t25.5 8h165q29 0 33 34t-18 59l-367 428q-13 15 -31 15t-32 -15l-367 -428q-21 -25 -13.5 -59t36.5 -34l152 6q19 0 32.5 -11.5t13.5 -32.5v-384q1 -21 8.5 -30t25.5 -9v0z" />
    <glyph glyph-name="uniE632" unicode="&#xe632;" 
d="M379 77l-306 334q-9 9 -8.5 22t10.5 22l27 24q9 9 22 8.5t22 -10.5l249 -272q8 -8 15 0l468 491q9 10 22 10t22 -8l27 -25q9 -9 9.5 -22t-8.5 -23l-526 -552q-9 -10 -22.5 -9.5t-22.5 10.5z" />
    <glyph glyph-name="uniE633" unicode="&#xe633;" 
d="M512 -63q-91 0 -174 35.5t-142.5 95t-95 142.5t-35.5 174t35.5 174t95 142.5t142.5 95t174 35.5t174 -35.5t142.5 -95t95 -142.5t35.5 -174t-35.5 -174t-95 -142.5t-142.5 -95t-174 -35.5zM512 775q-106 0 -196 -52.5t-142.5 -142.5t-52.5 -196t52.5 -196.5t142.5 -143
t196 -52.5t196 52.5t142.5 143t52.5 196.5t-52.5 196t-142.5 142.5t-196 52.5zM629 425q-24 -36 -64 -74q-18 -19 -22 -33.5t-4 -45.5h-67q0 49 8 68.5t43 50.5q34 40 48.5 61.5t14.5 51.5q0 36 -19.5 55.5t-55.5 19.5q-31 0 -53 -17q-10 -7 -16 -26.5t-6 -37.5h-64l-1 2
q0 29 10 58t29 45q40 33 101 33q67 0 104.5 -34.5t37.5 -95.5q0 -44 -24 -81zM541 132h-70v71h70v-71z" />
  </font>
</defs>
</svg>
